<svg version="1.2" xmlns="http://www.w3.org/2000/svg" viewBox="0 0 512 512" width="512" height="512"><defs><linearGradient id="P" gradientUnits="userSpaceOnUse"/><linearGradient id="g1" x2="1" href="#P" gradientTransform="matrix(0,294.213,-294.213,0,147.106,0)"><stop stop-color="#fb923c"/><stop offset="1" stop-color="#f97316"/></linearGradient><linearGradient id="g2" x2="1" href="#P" gradientTransform="matrix(155.197,0,0,19.812,43.256,77.928)"><stop stop-color="#fff" stop-opacity=".5"/><stop offset=".98" stop-color="#fff" stop-opacity=".69"/><stop offset="1" stop-color="#fff" stop-opacity=".7"/></linearGradient><linearGradient id="g3" x2="1" href="#P" gradientTransform="matrix(150.904,0,0,19.482,97.08,216.449)"><stop stop-color="#fff" stop-opacity=".5"/><stop offset=".98" stop-color="#fff" stop-opacity=".69"/><stop offset="1" stop-color="#fff" stop-opacity=".7"/></linearGradient><linearGradient id="g4" x2="1" href="#P" gradientTransform="matrix(133.073,0,0,19.812,114.911,124.157)"><stop stop-color="#fff" stop-opacity=".5"/><stop offset=".98" stop-color="#fff" stop-opacity=".69"/><stop offset="1" stop-color="#fff" stop-opacity=".7"/></linearGradient><linearGradient id="g5" x2="1" href="#P" gradientTransform="matrix(83.872,0,0,19.812,134.063,170.386)"><stop stop-color="#fff" stop-opacity=".5"/><stop offset=".98" stop-color="#fff" stop-opacity=".69"/><stop offset="1" stop-color="#fff" stop-opacity=".7"/></linearGradient></defs><style>.a{fill:url(#g1)}.b{fill:url(#g2)}.c{fill:url(#g3)}.d{fill:#fff}.e{fill:url(#g4)}.f{fill:url(#g5)}</style><path fill-rule="evenodd" class="a" d="m0 92c0-50.8 41.2-92 92-92h328c50.8 0 92 41.2 92 92v328c0 50.8-41.2 92-92 92h-328c-50.8 0-92-41.2-92-92z"/><path fill-rule="evenodd" class="b" d="m104.9 118.4c-11.6 0-17.4 0-21.6 2.7q-1.6 1-3 2.3c-3.1 3.1-5 7.4-5 12.2 0 4.8 1.9 9.1 5 12.2q1.4 1.3 3 2.4c4.2 2.7 10 2.7 21.6 2.7h210.8c11.6 0 17.4 0 21.7-2.7q1.6-1.1 2.9-2.4c3.1-3.1 5.1-7.4 5.1-12.2 0-4.8-2-9.1-5.1-12.2q-1.3-1.3-2.9-2.3c-4.3-2.7-10.1-2.7-21.7-2.7z"/><path fill-rule="evenodd" class="c" d="m197.8 359.7c-11.3 0-17 0-21.1 2.7q-1.5 1-2.9 2.3c-3 3.1-4.9 7.3-4.9 12 0 4.7 1.9 8.9 4.9 12q1.4 1.3 2.9 2.3c4.1 2.6 9.8 2.6 21.1 2.6h204.9c11.3 0 17 0 21.1-2.6q1.5-1 2.8-2.3c3.1-3.1 5-7.3 5-12 0-4.7-1.9-8.9-5-12q-1.3-1.3-2.8-2.3c-4.1-2.7-9.8-2.7-21.1-2.7z"/><path fill-rule="evenodd" class="d" d="m78.1 266.2c0-19.6 0-29.4 4.9-34.3 2.3-2.4 5.4-4.1 8.7-4.7 6.8-1.3 14.9 4.1 31.2 15l44.8 30c13.5 9 20.2 13.5 21.9 19.5 0.8 2.9 0.8 6.1 0 9.1-1.7 6-8.4 10.5-21.9 19.4l-44.8 30c-16.3 10.9-24.4 16.4-31.2 15.1-3.3-0.7-6.4-2.3-8.7-4.7-4.9-4.9-4.9-14.8-4.9-34.4z"/><path fill-rule="evenodd" class="d" d="m414.3 296.5c0-9.5 7.7-17.2 17.3-17.2 9.5 0 17.2 7.7 17.2 17.2 0 9.5-7.7 17.3-17.2 17.3-9.6 0-17.3-7.8-17.3-17.3z"/><path fill-rule="evenodd" class="e" d="m200 216.1c0-9.6 7.7-17.3 17.2-17.3h197.1c9.5 0 17.3 7.7 17.3 17.3 0 9.5-7.8 17.2-17.3 17.2h-197.1c-9.5 0-17.2-7.7-17.2-17.2z"/><path fill-rule="evenodd" class="f" d="m233.3 296.5c0-9.5 7.7-17.2 17.2-17.2h111.5c9.5 0 17.3 7.7 17.3 17.2 0 9.5-7.8 17.3-17.3 17.3h-111.5c-9.5 0-17.2-7.8-17.2-17.3z"/></svg>