<svg version="1.2" xmlns="http://www.w3.org/2000/svg" viewBox="0 0 75 76" width="75" height="76"><style>.a{fill:#fff}.b{fill:#fb923c}.c{fill:#4febb0}</style><path fill-rule="evenodd" class="a" d="m8.3 36.8c0-3.7 0-5.6 0.9-6.5 0.4-0.5 1-0.8 1.6-0.9 1.3-0.3 2.8 0.8 5.9 2.8l8.4 5.7c2.5 1.7 3.8 2.6 4.1 3.7 0.2 0.6 0.2 1.2 0 1.7-0.3 1.2-1.6 2-4.1 3.7l-8.4 5.7c-3.1 2.1-4.6 3.1-5.9 2.9-0.6-0.2-1.2-0.5-1.6-0.9-0.9-1-0.9-2.8-0.9-6.5z"/><path fill-rule="evenodd" class="b" d="m8.3 18c0-1.6 1.2-2.9 2.8-2.9h38.6c1.6 0 2.8 1.3 2.8 2.9 0 1.5-1.2 2.8-2.8 2.8h-38.6c-1.6 0-2.8-1.3-2.8-2.8z"/><path fill-rule="evenodd" class="c" d="m33.9 31.3c0-1.6 1.3-2.8 2.8-2.8h30c1.5 0 2.8 1.2 2.8 2.8 0 1.6-1.3 2.9-2.8 2.9h-30c-1.5 0-2.8-1.3-2.8-2.9z"/><path fill-rule="evenodd" class="b" d="m33.9 31.3c0-1.6 1.3-2.8 2.8-2.8h30c1.5 0 2.8 1.2 2.8 2.8 0 1.6-1.3 2.9-2.8 2.9h-30c-1.5 0-2.8-1.3-2.8-2.9z"/><path fill-rule="evenodd" class="b" d="m37.6 44.7c0-1.6 1.3-2.8 2.8-2.8h17.1c1.6 0 2.8 1.2 2.8 2.8 0 1.6-1.2 2.8-2.8 2.8h-17.1c-1.5 0-2.8-1.2-2.8-2.8z"/><path fill-rule="evenodd" class="b" d="m26 58.1c0-1.6 1.3-2.9 2.9-2.9h35c1.5 0 2.8 1.3 2.8 2.9 0 1.5-1.3 2.8-2.8 2.8h-35c-1.6 0-2.9-1.3-2.9-2.8z"/><path fill-rule="evenodd" class="a" d="m67.8 44.7c0-1.6 1.3-2.8 2.8-2.8h0.3c1.5 0 2.8 1.2 2.8 2.8 0 1.6-1.3 2.8-2.8 2.8h-0.3c-1.5 0-2.8-1.2-2.8-2.8z"/></svg>