<?xml version="1.0" encoding="UTF-8" standalone="no"?>
<!DOCTYPE svg PUBLIC "-//W3C//DTD SVG 1.1//EN" "http://www.w3.org/Graphics/SVG/1.1/DTD/svg11.dtd">
<svg width="100%" height="100%" viewBox="0 0 512 512" version="1.1" xmlns="http://www.w3.org/2000/svg" xmlns:xlink="http://www.w3.org/1999/xlink" xml:space="preserve" xmlns:serif="http://www.serif.com/" style="fill-rule:evenodd;clip-rule:evenodd;stroke-linejoin:round;stroke-miterlimit:2;">
    <g transform="matrix(0.574635,0,0,0.574635,-1163.636364,-592.448934)">
        <path d="M2025,1191.05C2025,1102.66 2096.66,1031 2185.05,1031L2755.95,1031C2844.34,1031 2916,1102.66 2916,1191.05L2916,1761.95C2916,1850.34 2844.34,1922 2755.95,1922L2185.05,1922C2096.66,1922 2025,1850.34 2025,1761.95L2025,1191.05Z" style="fill:url(#_Linear1);"/>
        <path d="M2207.6,1237C2187.39,1237 2177.28,1237 2169.93,1241.67C2168.06,1242.85 2166.34,1244.23 2164.79,1245.79C2159.36,1251.22 2156,1258.71 2156,1267C2156,1275.29 2159.36,1282.79 2164.79,1288.21C2166.34,1289.77 2168.06,1291.15 2169.93,1292.33C2177.28,1297 2187.39,1297 2207.6,1297L2574.4,1297C2594.61,1297 2604.71,1297 2612.07,1292.33C2613.94,1291.15 2615.66,1289.77 2617.21,1288.21C2622.64,1282.79 2626,1275.29 2626,1267C2626,1258.71 2622.64,1251.22 2617.21,1245.79C2615.66,1244.23 2613.94,1242.85 2612.07,1241.67C2604.71,1237 2594.61,1237 2574.4,1237L2207.6,1237Z" style="fill:url(#_Linear2);"/>
        <path d="M2369.17,1657C2349.52,1657 2339.7,1657 2332.54,1661.59C2330.73,1662.75 2329.05,1664.11 2327.54,1665.64C2322.26,1670.98 2319,1678.35 2319,1686.5C2319,1694.65 2322.26,1702.02 2327.54,1707.36C2329.05,1708.89 2330.73,1710.24 2332.54,1711.41C2339.7,1716 2349.52,1716 2369.17,1716L2725.83,1716C2745.48,1716 2755.3,1716 2762.46,1711.41C2764.27,1710.24 2765.95,1708.89 2767.46,1707.36C2772.74,1702.02 2776,1694.65 2776,1686.5C2776,1678.35 2772.74,1670.98 2767.46,1665.64C2765.95,1664.11 2764.27,1662.75 2762.46,1661.59C2755.3,1657 2745.48,1657 2725.83,1657L2369.17,1657Z" style="fill:url(#_Linear3);"/>
        <path d="M2161,1494.32C2161,1460.15 2161,1443.06 2169.36,1434.53C2173.51,1430.3 2178.84,1427.44 2184.64,1426.33C2196.35,1424.08 2210.52,1433.56 2238.86,1452.51L2316.87,1504.69C2340.28,1520.35 2351.98,1528.18 2354.9,1538.56C2356.37,1543.75 2356.37,1549.25 2354.9,1554.44C2351.98,1564.82 2340.28,1572.65 2316.87,1588.31L2238.86,1640.49C2210.52,1659.44 2196.35,1668.92 2184.64,1666.67C2178.84,1665.56 2173.51,1662.7 2169.36,1658.47C2161,1649.94 2161,1632.85 2161,1598.68L2161,1494.32Z" style="fill:white;"/>
        <path d="M2746,1547C2746,1530.43 2759.43,1517 2776,1517C2792.57,1517 2806,1530.43 2806,1547C2806,1563.57 2792.57,1577 2776,1577C2759.43,1577 2746,1563.57 2746,1547Z" style="fill:white;"/>
        <path d="M2373,1407C2373,1390.43 2386.43,1377 2403,1377L2746,1377C2762.57,1377 2776,1390.43 2776,1407C2776,1423.57 2762.57,1437 2746,1437L2403,1437C2386.43,1437 2373,1423.57 2373,1407Z" style="fill:url(#_Linear4);"/>
        <path d="M2431,1547C2431,1530.43 2444.43,1517 2461,1517L2655,1517C2671.57,1517 2685,1530.43 2685,1547C2685,1563.57 2671.57,1577 2655,1577L2461,1577C2444.43,1577 2431,1563.57 2431,1547Z" style="fill:url(#_Linear5);"/>
    </g>
    <defs>
        <linearGradient id="_Linear1" x1="0" y1="0" x2="1" y2="0" gradientUnits="userSpaceOnUse" gradientTransform="matrix(0,512,-512,0,2281,1031)"><stop offset="0" style="stop-color:rgb(52,211,153);stop-opacity:1"/><stop offset="0.5" style="stop-color:rgb(50,191,140);stop-opacity:1"/><stop offset="1" style="stop-color:rgb(48,172,127);stop-opacity:1"/></linearGradient>
        <linearGradient id="_Linear2" x1="0" y1="0" x2="1" y2="0" gradientUnits="userSpaceOnUse" gradientTransform="matrix(270.078563,0,0,270.078563,2100.277217,1166.613917)"><stop offset="0" style="stop-color:white;stop-opacity:0.5"/><stop offset="0.98" style="stop-color:white;stop-opacity:0.69"/><stop offset="1" style="stop-color:white;stop-opacity:0.7"/></linearGradient>
        <linearGradient id="_Linear3" x1="0" y1="0" x2="1" y2="0" gradientUnits="userSpaceOnUse" gradientTransform="matrix(262.608305,0,0,262.608305,2193.942761,1407.673401)"><stop offset="0" style="stop-color:white;stop-opacity:0.5"/><stop offset="0.98" style="stop-color:white;stop-opacity:0.69"/><stop offset="1" style="stop-color:white;stop-opacity:0.7"/></linearGradient>
        <linearGradient id="_Linear4" x1="0" y1="0" x2="1" y2="0" gradientUnits="userSpaceOnUse" gradientTransform="matrix(231.578002,0,0,231.578002,2224.973064,1247.062851)"><stop offset="0" style="stop-color:white;stop-opacity:0.5"/><stop offset="0.98" style="stop-color:white;stop-opacity:0.69"/><stop offset="1" style="stop-color:white;stop-opacity:0.7"/></linearGradient>
        <linearGradient id="_Linear5" x1="0" y1="0" x2="1" y2="0" gradientUnits="userSpaceOnUse" gradientTransform="matrix(145.957351,0,0,145.957351,2258.301908,1327.511785)"><stop offset="0" style="stop-color:white;stop-opacity:0.5"/><stop offset="0.98" style="stop-color:white;stop-opacity:0.69"/><stop offset="1" style="stop-color:white;stop-opacity:0.7"/></linearGradient>
    </defs>
</svg>
