<svg width="75" height="76" xmlns="http://www.w3.org/2000/svg" xmlns:xlink="http://www.w3.org/1999/xlink" xml:space="preserve" overflow="hidden"><g transform="translate(-580 -118)"><path d="M183.082 83.5726C183.082 79.9014 183.082 78.0658 183.984 77.1493 184.431 76.6952 185.005 76.3877 185.632 76.2678 186.894 76.026 188.422 77.0445 191.478 79.0808L199.89 84.6863C202.414 86.3685 203.676 87.2096 203.992 88.3253 204.149 88.8829 204.149 89.4733 203.992 90.0308 203.676 91.1466 202.414 91.9877 199.89 93.6699L191.478 99.2753C188.422 101.312 186.894 102.33 185.632 102.088 185.005 101.968 184.431 101.661 183.984 101.206 183.082 100.29 183.082 98.4555 183.082 94.7836L183.082 83.5726Z" fill="#262626" fill-rule="evenodd" transform="matrix(1 0 0 1.01333 405.205 70.1096)"/><path d="M183.082 65C183.082 63.449 184.34 62.1918 185.89 62.1918L224.521 62.1918C226.071 62.1918 227.329 63.449 227.329 65L227.329 65C227.329 66.551 226.071 67.8083 224.521 67.8083L185.89 67.8082C184.34 67.8082 183.082 66.5509 183.082 65Z" fill="#1F9168" fill-rule="evenodd" transform="matrix(1 0 0 1.01333 405.205 70.1096)"/><path d="M208.699 78.1849C208.699 76.6151 209.971 75.3425 211.541 75.3425L241.473 75.3425C243.042 75.3425 244.315 76.6151 244.315 78.1849L244.315 78.1849C244.315 79.7548 243.042 81.0274 241.473 81.0274L211.541 81.0274C209.971 81.0274 208.699 79.7548 208.699 78.1849Z" fill="#1F9168" fill-rule="evenodd" transform="matrix(1 0 0 1.01333 405.205 70.1096)"/><path d="M212.397 91.3699C212.397 89.8192 213.655 88.5616 215.205 88.5616L232.329 88.5616C233.879 88.5616 235.137 89.8192 235.137 91.3699L235.137 91.3699C235.137 92.9205 233.879 94.1781 232.329 94.1781L215.205 94.1781C213.655 94.1781 212.397 92.9205 212.397 91.3699Z" fill="#1F9168" fill-rule="evenodd" transform="matrix(1 0 0 1.01333 405.205 70.1096)"/><path d="M200.822 104.555C200.822 102.985 202.095 101.712 203.664 101.712L238.664 101.712C240.234 101.712 241.507 102.985 241.507 104.555L241.507 104.555C241.507 106.125 240.234 107.397 238.664 107.397L203.664 107.397C202.095 107.397 200.822 106.125 200.822 104.555Z" fill="#1F9168" fill-rule="evenodd" transform="matrix(1 0 0 1.01333 405.205 70.1096)"/><path d="M242.603 91.3699C242.603 89.8192 243.86 88.5616 245.411 88.5616L245.685 88.5616C247.236 88.5616 248.493 89.8192 248.493 91.3699L248.493 91.3699C248.493 92.9205 247.236 94.1781 245.685 94.1781L245.411 94.1781C243.86 94.1781 242.603 92.9205 242.603 91.3699Z" fill="#262626" fill-rule="evenodd" transform="matrix(1 0 0 1.01333 405.205 70.1096)"/></g></svg>