<svg width="75" height="76" xmlns="http://www.w3.org/2000/svg" xmlns:xlink="http://www.w3.org/1999/xlink" xml:space="preserve" overflow="hidden"><g transform="translate(-475 -117)"><path d="M67.0548 83.5726C67.0548 79.9014 67.0548 78.0658 67.9562 77.1493 68.4032 76.6952 68.9781 76.3877 69.6041 76.2678 70.8664 76.026 72.3945 77.0445 75.4507 79.0808L83.8623 84.6863C86.387 86.3685 87.6486 87.2096 87.9644 88.3253 88.1219 88.8829 88.1219 89.4733 87.9644 90.0308 87.6486 91.1466 86.387 91.9877 83.8623 93.6699L75.4507 99.2753C72.3945 101.312 70.8664 102.33 69.6041 102.088 68.9781 101.968 68.4032 101.661 67.9562 101.206 67.0548 100.29 67.0548 98.4555 67.0548 94.7836L67.0548 83.5726Z" fill="#FFFFFF" fill-rule="evenodd" transform="matrix(1 0 0 1.01333 416.233 69.1096)"/><path d="M67.0548 65C67.0548 63.449 68.3121 62.1918 69.863 62.1918L108.493 62.1918C110.044 62.1918 111.301 63.449 111.301 65L111.301 65C111.301 66.551 110.044 67.8083 108.493 67.8083L69.863 67.8082C68.3121 67.8082 67.0548 66.5509 67.0548 65Z" fill="#4FEBB0" fill-rule="evenodd" transform="matrix(1 0 0 1.01333 416.233 69.1096)"/><path d="M92.6712 78.1849C92.6712 76.6151 93.9438 75.3425 95.5137 75.3425L125.445 75.3425C127.015 75.3425 128.288 76.6151 128.288 78.1849L128.288 78.1849C128.288 79.7548 127.015 81.0274 125.445 81.0274L95.5137 81.0274C93.9438 81.0274 92.6712 79.7548 92.6712 78.1849Z" fill="#4FEBB0" fill-rule="evenodd" transform="matrix(1 0 0 1.01333 416.233 69.1096)"/><path d="M96.3699 91.3699C96.3699 89.8192 97.6274 88.5616 99.1781 88.5616L116.301 88.5616C117.852 88.5616 119.11 89.8192 119.11 91.3699L119.11 91.3699C119.11 92.9205 117.852 94.1781 116.301 94.1781L99.1781 94.1781C97.6274 94.1781 96.3699 92.9205 96.3699 91.3699Z" fill="#4FEBB0" fill-rule="evenodd" transform="matrix(1 0 0 1.01333 416.233 69.1096)"/><path d="M84.7945 104.555C84.7945 102.985 86.0671 101.712 87.637 101.712L122.637 101.712C124.207 101.712 125.479 102.985 125.479 104.555L125.479 104.555C125.479 106.125 124.207 107.397 122.637 107.397L87.637 107.397C86.0671 107.397 84.7945 106.125 84.7945 104.555Z" fill="#4FEBB0" fill-rule="evenodd" transform="matrix(1 0 0 1.01333 416.233 69.1096)"/><path d="M126.575 91.3699C126.575 89.8192 127.833 88.5616 129.384 88.5616L129.658 88.5616C131.208 88.5616 132.466 89.8192 132.466 91.3699L132.466 91.3699C132.466 92.9205 131.208 94.1781 129.658 94.1781L129.384 94.1781C127.833 94.1781 126.575 92.9205 126.575 91.3699Z" fill="#FFFFFF" fill-rule="evenodd" transform="matrix(1 0 0 1.01333 416.233 69.1096)"/></g></svg>